<svg id="visual" viewBox="0 0 900 600" width="900" height="600" xmlns="http://www.w3.org/2000/svg" xmlns:xlink="http://www.w3.org/1999/xlink" version="1.1"><rect x="0" y="0" width="900" height="600" fill="#001220"></rect><defs><linearGradient id="grad1_0" x1="33.3%" y1="100%" x2="100%" y2="0%"><stop offset="20%" stop-color="#fbae3c" stop-opacity="1"></stop><stop offset="80%" stop-color="#fbae3c" stop-opacity="1"></stop></linearGradient></defs><defs><linearGradient id="grad1_1" x1="33.3%" y1="100%" x2="100%" y2="0%"><stop offset="20%" stop-color="#fbae3c" stop-opacity="1"></stop><stop offset="80%" stop-color="#cc5867" stop-opacity="1"></stop></linearGradient></defs><defs><linearGradient id="grad1_2" x1="33.3%" y1="100%" x2="100%" y2="0%"><stop offset="20%" stop-color="#593762" stop-opacity="1"></stop><stop offset="80%" stop-color="#cc5867" stop-opacity="1"></stop></linearGradient></defs><defs><linearGradient id="grad1_3" x1="33.3%" y1="100%" x2="100%" y2="0%"><stop offset="20%" stop-color="#593762" stop-opacity="1"></stop><stop offset="80%" stop-color="#001220" stop-opacity="1"></stop></linearGradient></defs><defs><linearGradient id="grad2_0" x1="0%" y1="100%" x2="66.7%" y2="0%"><stop offset="20%" stop-color="#fbae3c" stop-opacity="1"></stop><stop offset="80%" stop-color="#fbae3c" stop-opacity="1"></stop></linearGradient></defs><defs><linearGradient id="grad2_1" x1="0%" y1="100%" x2="66.7%" y2="0%"><stop offset="20%" stop-color="#cc5867" stop-opacity="1"></stop><stop offset="80%" stop-color="#fbae3c" stop-opacity="1"></stop></linearGradient></defs><defs><linearGradient id="grad2_2" x1="0%" y1="100%" x2="66.7%" y2="0%"><stop offset="20%" stop-color="#cc5867" stop-opacity="1"></stop><stop offset="80%" stop-color="#593762" stop-opacity="1"></stop></linearGradient></defs><defs><linearGradient id="grad2_3" x1="0%" y1="100%" x2="66.7%" y2="0%"><stop offset="20%" stop-color="#001220" stop-opacity="1"></stop><stop offset="80%" stop-color="#593762" stop-opacity="1"></stop></linearGradient></defs><g transform="translate(900, 600)"><path d="M-351.5 0C-344.5 -65.3 -337.6 -130.6 -304.4 -175.8C-271.3 -220.9 -212.1 -246 -157 -271.9C-101.9 -297.9 -51 -324.7 0 -351.5L0 0Z" fill="#232745"></path><path d="M-263.7 0C-258.4 -49 -253.2 -97.9 -228.3 -131.8C-203.5 -165.7 -159.1 -184.5 -117.8 -203.9C-76.4 -223.4 -38.2 -243.5 0 -263.7L0 0Z" fill="#96446e"></path><path d="M-175.8 0C-172.3 -32.6 -168.8 -65.3 -152.2 -87.9C-135.7 -110.5 -106 -123 -78.5 -136C-51 -148.9 -25.5 -162.4 0 -175.8L0 0Z" fill="#f17c53"></path><path d="M-87.9 0C-86.1 -16.3 -84.4 -32.6 -76.1 -43.9C-67.8 -55.2 -53 -61.5 -39.3 -68C-25.5 -74.5 -12.7 -81.2 0 -87.9L0 0Z" fill="#fbae3c"></path></g><g transform="translate(0, 0)"><path d="M351.5 0C344.1 64.5 336.6 129 304.4 175.8C272.3 222.6 215.4 251.6 160.5 278C105.6 304.3 52.8 327.9 0 351.5L0 0Z" fill="#232745"></path><path d="M263.7 0C258.1 48.4 252.5 96.7 228.3 131.8C204.2 166.9 161.5 188.7 120.4 208.5C79.2 228.3 39.6 246 0 263.7L0 0Z" fill="#96446e"></path><path d="M175.8 0C172 32.2 168.3 64.5 152.2 87.9C136.1 111.3 107.7 125.8 80.3 139C52.8 152.2 26.4 164 0 175.8L0 0Z" fill="#f17c53"></path><path d="M87.9 0C86 16.1 84.2 32.2 76.1 43.9C68.1 55.6 53.8 62.9 40.1 69.5C26.4 76.1 13.2 82 0 87.9L0 0Z" fill="#fbae3c"></path></g></svg>