<svg id="visual" viewBox="0 0 900 600" width="900" height="600" xmlns="http://www.w3.org/2000/svg" xmlns:xlink="http://www.w3.org/1999/xlink" version="1.1"><g stroke-width="1" stroke-linejoin="bevel"><path d="M463 334L412 306L374 369Z" fill="#297ea6" stroke="#297ea6"></path><path d="M374 369L510 370L463 334Z" fill="#205a7a" stroke="#205a7a"></path><path d="M297 301L301 401L374 369Z" fill="#205a7a" stroke="#205a7a"></path><path d="M374 369L400 494L510 370Z" fill="#15384f" stroke="#15384f"></path><path d="M412 306L297 301L374 369Z" fill="#19435d" stroke="#19435d"></path><path d="M635 290L462 225L463 334Z" fill="#112e42" stroke="#112e42"></path><path d="M463 334L462 225L412 306Z" fill="#19435d" stroke="#19435d"></path><path d="M412 306L323 203L297 301Z" fill="#112e42" stroke="#112e42"></path><path d="M301 401L400 494L374 369Z" fill="#19435d" stroke="#19435d"></path><path d="M400 494L519 460L510 370Z" fill="#246688" stroke="#246688"></path><path d="M462 225L423 189L412 306Z" fill="#15384f" stroke="#15384f"></path><path d="M423 189L323 203L412 306Z" fill="#19435d" stroke="#19435d"></path><path d="M519 460L623 414L510 370Z" fill="#0c2435" stroke="#0c2435"></path><path d="M510 370L635 290L463 334Z" fill="#246688" stroke="#246688"></path><path d="M323 203L237 228L297 301Z" fill="#15384f" stroke="#15384f"></path><path d="M297 301L202 418L301 401Z" fill="#246688" stroke="#246688"></path><path d="M623 414L635 290L510 370Z" fill="#15384f" stroke="#15384f"></path><path d="M462 225L495 79L423 189Z" fill="#1d4e6b" stroke="#1d4e6b"></path><path d="M635 290L574 189L462 225Z" fill="#1d4e6b" stroke="#1d4e6b"></path><path d="M184 269L202 418L297 301Z" fill="#081a28" stroke="#081a28"></path><path d="M301 401L283 538L400 494Z" fill="#205a7a" stroke="#205a7a"></path><path d="M202 418L283 538L301 401Z" fill="#1d4e6b" stroke="#1d4e6b"></path><path d="M400 494L502 600L519 460Z" fill="#277297" stroke="#277297"></path><path d="M337 600L417 600L400 494Z" fill="#277297" stroke="#277297"></path><path d="M638 523L664 479L623 414Z" fill="#19435d" stroke="#19435d"></path><path d="M237 228L184 269L297 301Z" fill="#277297" stroke="#277297"></path><path d="M283 538L337 600L400 494Z" fill="#00101c" stroke="#00101c"></path><path d="M417 600L502 600L400 494Z" fill="#112e42" stroke="#112e42"></path><path d="M623 414L678 314L635 290Z" fill="#246688" stroke="#246688"></path><path d="M635 290L713 211L574 189Z" fill="#081a28" stroke="#081a28"></path><path d="M638 523L623 414L519 460Z" fill="#1d4e6b" stroke="#1d4e6b"></path><path d="M623 414L724 439L678 314Z" fill="#19435d" stroke="#19435d"></path><path d="M571 600L638 523L519 460Z" fill="#112e42" stroke="#112e42"></path><path d="M423 189L338 86L323 203Z" fill="#112e42" stroke="#112e42"></path><path d="M323 203L188 75L237 228Z" fill="#205a7a" stroke="#205a7a"></path><path d="M237 228L113 186L184 269Z" fill="#0c2435" stroke="#0c2435"></path><path d="M364 68L338 86L423 189Z" fill="#112e42" stroke="#112e42"></path><path d="M631 81L495 79L574 189Z" fill="#00101c" stroke="#00101c"></path><path d="M574 189L495 79L462 225Z" fill="#081a28" stroke="#081a28"></path><path d="M502 600L571 600L519 460Z" fill="#297ea6" stroke="#297ea6"></path><path d="M495 79L364 68L423 189Z" fill="#0c2435" stroke="#0c2435"></path><path d="M184 269L120 398L202 418Z" fill="#19435d" stroke="#19435d"></path><path d="M202 418L167 535L283 538Z" fill="#246688" stroke="#246688"></path><path d="M283 538L198 600L337 600Z" fill="#0c2435" stroke="#0c2435"></path><path d="M120 398L167 535L202 418Z" fill="#246688" stroke="#246688"></path><path d="M664 479L724 439L623 414Z" fill="#0c2435" stroke="#0c2435"></path><path d="M779 496L724 439L664 479Z" fill="#0c2435" stroke="#0c2435"></path><path d="M779 496L664 479L723 600Z" fill="#277297" stroke="#277297"></path><path d="M113 186L95 319L184 269Z" fill="#112e42" stroke="#112e42"></path><path d="M184 269L95 319L120 398Z" fill="#297ea6" stroke="#297ea6"></path><path d="M833 337L713 211L678 314Z" fill="#0c2435" stroke="#0c2435"></path><path d="M678 314L713 211L635 290Z" fill="#00101c" stroke="#00101c"></path><path d="M167 535L198 600L283 538Z" fill="#0c2435" stroke="#0c2435"></path><path d="M683 124L631 81L574 189Z" fill="#1d4e6b" stroke="#1d4e6b"></path><path d="M495 79L431 0L364 68Z" fill="#00101c" stroke="#00101c"></path><path d="M120 398L122 536L167 535Z" fill="#15384f" stroke="#15384f"></path><path d="M167 535L124 600L198 600Z" fill="#15384f" stroke="#15384f"></path><path d="M0 538L122 536L120 398Z" fill="#112e42" stroke="#112e42"></path><path d="M188 75L113 186L237 228Z" fill="#1d4e6b" stroke="#1d4e6b"></path><path d="M188 75L323 203L338 86Z" fill="#00101c" stroke="#00101c"></path><path d="M713 211L683 124L574 189Z" fill="#1d4e6b" stroke="#1d4e6b"></path><path d="M465 0L431 0L495 79Z" fill="#277297" stroke="#277297"></path><path d="M206 0L188 75L338 86Z" fill="#112e42" stroke="#112e42"></path><path d="M580 0L465 0L495 79Z" fill="#19435d" stroke="#19435d"></path><path d="M332 0L338 86L364 68Z" fill="#205a7a" stroke="#205a7a"></path><path d="M431 0L332 0L364 68Z" fill="#00101c" stroke="#00101c"></path><path d="M122 536L124 600L167 535Z" fill="#15384f" stroke="#15384f"></path><path d="M0 600L124 600L122 536Z" fill="#297ea6" stroke="#297ea6"></path><path d="M723 600L664 479L638 523Z" fill="#297ea6" stroke="#297ea6"></path><path d="M724 439L820 384L678 314Z" fill="#297ea6" stroke="#297ea6"></path><path d="M734 0L580 0L631 81Z" fill="#0c2435" stroke="#0c2435"></path><path d="M631 81L580 0L495 79Z" fill="#00101c" stroke="#00101c"></path><path d="M571 600L723 600L638 523Z" fill="#297ea6" stroke="#297ea6"></path><path d="M206 0L128 79L188 75Z" fill="#277297" stroke="#277297"></path><path d="M188 75L128 79L113 186Z" fill="#19435d" stroke="#19435d"></path><path d="M779 496L820 384L724 439Z" fill="#081a28" stroke="#081a28"></path><path d="M713 211L814 89L683 124Z" fill="#0c2435" stroke="#0c2435"></path><path d="M332 0L206 0L338 86Z" fill="#246688" stroke="#246688"></path><path d="M820 384L833 337L678 314Z" fill="#0c2435" stroke="#0c2435"></path><path d="M0 268L0 385L95 319Z" fill="#1d4e6b" stroke="#1d4e6b"></path><path d="M95 319L0 385L120 398Z" fill="#00101c" stroke="#00101c"></path><path d="M0 268L95 319L0 232Z" fill="#19435d" stroke="#19435d"></path><path d="M833 337L816 212L713 211Z" fill="#081a28" stroke="#081a28"></path><path d="M683 124L734 0L631 81Z" fill="#205a7a" stroke="#205a7a"></path><path d="M723 600L767 600L779 496Z" fill="#1d4e6b" stroke="#1d4e6b"></path><path d="M900 412L833 337L820 384Z" fill="#246688" stroke="#246688"></path><path d="M900 412L900 296L833 337Z" fill="#0c2435" stroke="#0c2435"></path><path d="M0 232L95 319L113 186Z" fill="#246688" stroke="#246688"></path><path d="M0 99L0 232L113 186Z" fill="#205a7a" stroke="#205a7a"></path><path d="M0 385L0 538L120 398Z" fill="#112e42" stroke="#112e42"></path><path d="M814 89L734 0L683 124Z" fill="#205a7a" stroke="#205a7a"></path><path d="M900 123L814 89L816 212Z" fill="#205a7a" stroke="#205a7a"></path><path d="M816 212L814 89L713 211Z" fill="#081a28" stroke="#081a28"></path><path d="M900 412L820 384L900 475Z" fill="#297ea6" stroke="#297ea6"></path><path d="M833 337L900 296L816 212Z" fill="#277297" stroke="#277297"></path><path d="M900 475L820 384L779 496Z" fill="#19435d" stroke="#19435d"></path><path d="M0 538L0 600L122 536Z" fill="#205a7a" stroke="#205a7a"></path><path d="M128 79L0 99L113 186Z" fill="#081a28" stroke="#081a28"></path><path d="M63 0L0 99L128 79Z" fill="#297ea6" stroke="#297ea6"></path><path d="M900 600L900 475L779 496Z" fill="#19435d" stroke="#19435d"></path><path d="M900 296L900 216L816 212Z" fill="#205a7a" stroke="#205a7a"></path><path d="M900 0L775 0L814 89Z" fill="#19435d" stroke="#19435d"></path><path d="M814 89L775 0L734 0Z" fill="#246688" stroke="#246688"></path><path d="M206 0L63 0L128 79Z" fill="#1d4e6b" stroke="#1d4e6b"></path><path d="M900 216L900 123L816 212Z" fill="#081a28" stroke="#081a28"></path><path d="M767 600L900 600L779 496Z" fill="#1d4e6b" stroke="#1d4e6b"></path><path d="M63 0L0 0L0 99Z" fill="#297ea6" stroke="#297ea6"></path><path d="M900 123L900 0L814 89Z" fill="#19435d" stroke="#19435d"></path></g></svg>